<?xml version="1.0" standalone="no"?><!DOCTYPE svg PUBLIC "-//W3C//DTD SVG 1.1//EN" "http://www.w3.org/Graphics/SVG/1.1/DTD/svg11.dtd"><svg t="1738981847082" class="icon" viewBox="0 0 1024 1024" version="1.1" xmlns="http://www.w3.org/2000/svg" p-id="8395" xmlns:xlink="http://www.w3.org/1999/xlink" width="128" height="128"><path d="M694 255.5c0 60.161-27.742 113.843-71.131 148.95L662.299 524h149.617c14.729 0 27.557 10.055 31.074 24.359l44.262 180C892.211 748.525 876.945 768 856.178 768H169.822c-20.767 0-36.033-19.475-31.074-39.641l44.262-180C186.527 534.055 199.355 524 214.084 524h115.618l42.325-128.324C334.482 360.714 311 310.849 311 255.5 311 149.737 396.737 64 502.5 64S694 149.737 694 255.5zM502.5 367c61.58 0 111.5-49.92 111.5-111.5S564.08 144 502.5 144 391 193.92 391 255.5 440.92 367 502.5 367z m0 80c-20.957 0-41.127-3.366-60-9.588L413.941 524H578.06l-27.41-83.104C535.266 444.88 519.13 447 502.5 447zM231.055 688h563.89l-20.656-84H251.711l-20.656 84zM195 816c-8.837 0-16 7.163-16 16v48c0 8.837 7.163 16 16 16h635c8.837 0 16-7.163 16-16v-48c0-8.837-7.163-16-16-16H195z" fill="#323338" p-id="8396"></path></svg>