<?xml version="1.0" standalone="no"?><!DOCTYPE svg PUBLIC "-//W3C//DTD SVG 1.1//EN" "http://www.w3.org/Graphics/SVG/1.1/DTD/svg11.dtd"><svg t="1737362335149" class="icon" viewBox="0 0 1024 1024" version="1.1" xmlns="http://www.w3.org/2000/svg" p-id="44762" xmlns:xlink="http://www.w3.org/1999/xlink" width="128" height="128"><path d="M426.88 896h-298.666667a42.666667 42.666667 0 0 1-42.666666-42.666667V170.666667a42.666667 42.666667 0 0 1 42.666666-42.666667h298.666667a85.333333 85.333333 0 1 0 170.666667 0h298.666666a42.666667 42.666667 0 0 1 42.666667 42.666667v682.666666a42.666667 42.666667 0 0 1-42.666667 42.666667h-298.666666a85.333333 85.333333 0 1 0-170.666667 0zM364.373333 810.666667a170.581333 170.581333 0 0 1 147.84-85.333334c63.146667 0 118.314667 34.304 147.84 85.333334h193.493334V213.333333H660.053333a170.624 170.624 0 0 1-147.84 85.333334A170.581333 170.581333 0 0 1 364.373333 213.333333H170.88v597.333334H364.373333zM256.213333 341.333333h85.333334v341.333334h-85.333334V341.333333z m426.666667 0h85.333333v341.333334h-85.333333V341.333333z"  p-id="44763"></path></svg>