<?xml version="1.0" standalone="no"?><!DOCTYPE svg PUBLIC "-//W3C//DTD SVG 1.1//EN" "http://www.w3.org/Graphics/SVG/1.1/DTD/svg11.dtd"><svg t="1737363479051" class="icon" viewBox="0 0 1024 1024" version="1.1" xmlns="http://www.w3.org/2000/svg" p-id="101900" xmlns:xlink="http://www.w3.org/1999/xlink" width="128" height="128"><path d="M892.6 183.7c4.4 0 8 3.6 8 8v137.9c0 3.1-2.1 5.9-5.5 7.1-73 27.2-122.1 97.8-122.1 175.8 0 78 49.1 148.6 122.1 175.8 3.3 1.2 5.5 4 5.5 7.1v132.2c0 4.4-3.6 8-8 8H132.2c-4.4 0-8-3.6-8-8V696.5c0-3.1 2.1-5.9 5.5-7.2 72.6-27.4 121.3-98 121.3-175.5s-48.7-148.1-121.3-175.5c-3.3-1.3-5.5-4.1-5.5-7.2V191.7c0-4.4 3.6-8 8-8h760.4m0-60H132.2c-37.6 0-68 30.4-68 68v139.4c0 28.3 17.8 53.3 44.3 63.3 48.2 18.2 82.5 64.8 82.5 119.4 0 54.6-34.3 101.2-82.5 119.4-26.5 10-44.3 35-44.3 63.3v131.2c0 37.6 30.4 68 68 68h760.3c37.6 0 68-30.4 68-68V695.5c0-28.4-17.9-53.4-44.5-63.3-48.5-18.2-83-64.9-83-119.7s34.6-101.5 83.1-119.6c26.6-9.9 44.5-35 44.5-63.3V191.7c0-37.6-30.5-68-68-68z"  p-id="101901"></path><path d="M671.1 448.2H352.3c-17.8 0-32.2-14.4-32.2-32.2 0-17.8 14.4-32.2 32.2-32.2h318.9c17.8 0 32.2 14.4 32.2 32.2-0.1 17.8-14.5 32.2-32.3 32.2zM670.8 640.2H351.9c-17.8 0-32.2-14.4-32.2-32.2 0-17.8 14.4-32.2 32.2-32.2h318.9c17.8 0 32.2 14.4 32.2 32.2 0 17.8-14.5 32.2-32.2 32.2z"  p-id="101902"></path></svg>