<?xml version="1.0" standalone="no"?><!DOCTYPE svg PUBLIC "-//W3C//DTD SVG 1.1//EN" "http://www.w3.org/Graphics/SVG/1.1/DTD/svg11.dtd"><svg t="1737362723198" class="icon" viewBox="0 0 1024 1024" version="1.1" xmlns="http://www.w3.org/2000/svg" p-id="70133" xmlns:xlink="http://www.w3.org/1999/xlink" width="128" height="128"><path d="M192.4096 852.2752a32.8704 32.8704 0 0 1-12.8-2.3552 33.1776 33.1776 0 0 1-20.48-30.72V254.8736a83.1488 83.1488 0 0 1 82.5344-82.944h540.5696a82.944 82.944 0 0 1 82.8416 82.8416v405.0944a82.944 82.944 0 0 1-82.944 82.944H315.6992l-99.7376 99.7376a33.3824 33.3824 0 0 1-23.552 9.728z m49.4592-649.9328a52.3264 52.3264 0 0 0-51.9168 52.224v564.3264a2.3552 2.3552 0 0 0 1.6384 2.4576 2.4576 2.4576 0 0 0 2.9696 0l108.4416-109.2608h479.1296a52.3264 52.3264 0 0 0 52.224-52.224V254.464a52.224 52.224 0 0 0-52.1216-52.1216z"  p-id="70134"></path><path d="M478.208 288.3584h67.4816v202.6496H478.208zM545.792 626.0736h-67.584v-67.584h67.584v67.584z" p-id="70135"></path></svg>