<?xml version="1.0" standalone="no"?><!DOCTYPE svg PUBLIC "-//W3C//DTD SVG 1.1//EN" "http://www.w3.org/Graphics/SVG/1.1/DTD/svg11.dtd"><svg t="1737362238482" class="icon" viewBox="0 0 1024 1024" version="1.1" xmlns="http://www.w3.org/2000/svg" p-id="40174" xmlns:xlink="http://www.w3.org/1999/xlink" width="128" height="128"><path d="M931.2 728.8l-60.8 27.4V400c0-12.4-10-22.4-22.4-22.4s-22.4 10-22.4 22.4v376.3L516.9 915.2l-4.9 2.2-313.6-141.1V131.2c0-12.3 10.1-22.4 22.4-22.4h582.4c12.3 0 22.4 10.1 22.4 22.4v89.6c0 12.4 10 22.4 22.4 22.4s22.4-10 22.4-22.4v-112c0-24.6-20.2-44.8-44.8-44.8H198.4c-24.6 0-44.8 20.2-44.8 44.8v647.4l-60.8-27.4c-13.5-6.1-28.8 3.8-28.8 18.6 0 8 4.7 15.3 12 18.6l77.6 34.9 44.8 20.2 209.2 94.1 95.2 42.8c2.9 1.3 6 2 9.2 2 3.1 0 6.3-0.7 9.2-2l95.2-42.8 209.2-94.1 44.8-20.2L948 766c7.3-3.3 12-10.6 12-18.6 0-14.8-15.3-24.7-28.8-18.6zM661.4 303c-8.7-8.7-23-8.7-31.7 0L512 420.6 394.3 303c-8.7-8.7-23-8.7-31.7 0s-8.7 23 0 31.7l87.8 87.8h-61.6c-12.3 0-22.4 10.1-22.4 22.4 0 12.3 10.1 22.4 22.4 22.4h100.8v67.2H388.8c-12.3 0-22.4 10.1-22.4 22.4 0 12.3 10.1 22.4 22.4 22.4h100.8v89.6c0 12.3 10.1 22.4 22.4 22.4 12.3 0 22.4-10.1 22.4-22.4v-89.6h100.8c12.3 0 22.4-10.1 22.4-22.4 0-12.3-10.1-22.4-22.4-22.4H534.4v-67.2h100.8c12.3 0 22.4-10.1 22.4-22.4 0-12.3-10.1-22.4-22.4-22.4h-61.6l87.8-87.8c8.7-8.8 8.7-23 0-31.7z"  p-id="40175"></path></svg>