<?xml version="1.0" standalone="no"?><!DOCTYPE svg PUBLIC "-//W3C//DTD SVG 1.1//EN" "http://www.w3.org/Graphics/SVG/1.1/DTD/svg11.dtd"><svg t="1737363636820" class="icon" viewBox="0 0 1024 1024" version="1.1" xmlns="http://www.w3.org/2000/svg" p-id="111870" xmlns:xlink="http://www.w3.org/1999/xlink" width="128" height="128"><path d="M512 715.556H227.68v40.565H512v-40.565z m121.878-81.496H227.679v40.748h406.199V634.06zM430.87 552.748H227.68v40.565h203.19v-40.565zM857.167 64.323H329.274c-11.145 0-20.283 9.136-20.283 20.283v61.03h40.565V105.07h487.328v670.054l-66.877-53.722c-3.654-3.654-8.77-5.847-14.436-5.847v48.97l1.645-1.46 85.516 68.52c3.654 3.655 8.77 6.031 14.435 6.031 11.146 0 20.283-9.136 20.283-20.465V84.606c0-11.147-9.136-20.283-20.283-20.283zM674.443 897.185l-66.877-53.722c-3.655-3.654-8.771-5.847-14.436-5.847-5.482 0-10.599 2.193-14.253 5.847L512 910.523l-66.877-67.06c-3.654-3.654-8.77-5.847-14.253-5.847-5.664 0-10.78 2.193-14.436 5.847l-66.877 67.06-66.877-67.06c-3.654-3.654-8.77-5.847-14.252-5.847-5.664 0-10.781 2.193-14.436 5.847l-66.877 53.722V227.13h487.328v670.054z m20.282-710.801H166.832c-11.146 0-20.283 9.136-20.283 20.465v732.545c0 11.146 9.136 20.283 20.283 20.283 5.664 0 10.78-2.193 14.435-6.03l85.516-68.522 68.522 68.522c3.654 3.654 8.587 6.03 14.252 6.03 5.664 0 10.78-2.375 14.436-6.03l66.877-66.877 66.695 66.877c3.654 3.654 8.771 6.03 14.436 6.03s10.598-2.193 14.436-6.03l68.34-68.522 85.515 68.522c3.654 3.837 8.77 6.03 14.436 6.03 11.146 0 20.283-9.136 20.283-20.283V206.85c-0.003-11.329-9.14-20.465-20.286-20.465z m-223.29 81.495H430.87v203.373h40.565V267.879z m162.443 0H593.13v203.373h40.748V267.879z m-365.45 0h-40.749v203.373h40.749V267.879z m284.137 0H512v203.373h40.565V267.879z m-162.443 0h-81.13v203.373h81.13V267.879z" p-id="111871"></path></svg>