<?xml version="1.0" standalone="no"?><!DOCTYPE svg PUBLIC "-//W3C//DTD SVG 1.1//EN" "http://www.w3.org/Graphics/SVG/1.1/DTD/svg11.dtd"><svg t="1757640810493" class="icon" viewBox="0 0 1024 1024" version="1.1" xmlns="http://www.w3.org/2000/svg" p-id="4682" xmlns:xlink="http://www.w3.org/1999/xlink" width="128" height="128"><path d="M661.618 392.011c0 2.373-2.496 6.521-7.453 12.454-4.992 5.933-10.336 12.92-16.031 20.988-5.695 8.06-11.004 16.831-15.996 26.314s-7.453 19.204-7.453 29.162c0 9.967 2.461 19.564 7.453 28.811 4.992 9.255 10.301 17.666 15.996 25.251 5.695 7.594 11.039 13.878 16.031 18.861 4.957 4.966 7.453 8.174 7.453 9.598v74.689c0 8.06-2.953 17.191-8.895 27.387-5.906 10.195-13.254 19.793-22.043 28.811-8.754 9-18.492 16.488-29.18 22.395-10.652 5.941-20.742 8.895-30.234 8.895H217.735c-12.797 0-24.539-2.25-35.191-6.75-10.688-4.5-20.039-10.793-28.125-18.844-8.051-8.068-14.344-17.543-18.844-28.459-4.5-10.907-6.75-22.764-6.75-35.561V329.415c0-9.483 2.145-19.327 6.398-29.522 4.289-10.195 10.301-19.556 18.141-28.099 7.84-8.534 17.086-15.645 27.738-21.34 10.688-5.687 22.395-8.534 35.227-8.534H569.86c12.797 0 24.785 2.25 35.93 6.759 11.145 4.5 20.848 10.67 29.145 18.492 8.297 7.831 14.836 17.191 19.582 28.099s7.102 22.526 7.102 34.857v61.884h-0.001z m221.238-66.867v325.09c0 10.433-2.742 19.679-8.191 27.738-5.449 8.068-13.641 12.094-24.539 12.094-3.797 0-8.648-1.424-14.59-4.271a163.878 163.878 0 0 1-17.754-9.958c-5.941-3.788-11.531-7.585-16.734-11.382-5.203-3.788-9-6.873-11.391-9.237-6.152-5.221-15.539-14.238-28.09-27.035-12.586-12.806-25.242-27.272-38.074-43.392-12.797-16.128-24.047-32.722-33.785-49.799-9.703-17.068-14.555-32.722-14.555-46.951 0-14.221 5.203-30.463 15.645-48.718s22.992-36.158 37.688-53.71 30.129-33.794 46.23-48.727c16.137-14.941 29.637-26.209 40.57-33.785 4.254-2.848 10.055-6.284 17.402-10.318s13.887-6.047 19.582-6.047c12.797 0 21.094 3.56 24.891 10.67s5.695 15.891 5.695 26.314v1.424z m0 0"  p-id="4683"></path></svg>