<?xml version="1.0" standalone="no"?><!DOCTYPE svg PUBLIC "-//W3C//DTD SVG 1.1//EN" "http://www.w3.org/Graphics/SVG/1.1/DTD/svg11.dtd"><svg t="1737362062004" class="icon" viewBox="0 0 1024 1024" version="1.1" xmlns="http://www.w3.org/2000/svg" p-id="37710" xmlns:xlink="http://www.w3.org/1999/xlink" width="128" height="128"><path d="M779.636364 139.636364A81.454545 81.454545 0 0 1 861.090909 221.090909v581.818182a81.454545 81.454545 0 0 1-162.909091 0v-205.009455l-173.474909-173.730909-13.637818-13.381818A303.639273 303.639273 0 0 1 698.181818 306.036364V221.090909A81.454545 81.454545 0 0 1 779.636364 139.636364z m-535.272728 0A81.454545 81.454545 0 0 1 325.818182 221.090909v85.178182a302.219636 302.219636 0 0 1 186.088727 106.496l-33.093818 33.093818L325.818182 598.807273v204.101818a81.454545 81.454545 0 0 1-162.909091 0v-581.818182A81.454545 81.454545 0 0 1 244.363636 139.636364z m535.272728 46.545454A34.909091 34.909091 0 0 0 744.727273 221.090909v581.818182a34.909091 34.909091 0 0 0 69.818182 0v-581.818182A34.909091 34.909091 0 0 0 779.636364 186.181818z m-535.272728 0A34.909091 34.909091 0 0 0 209.454545 221.090909v581.818182a34.909091 34.909091 0 0 0 69.818182 0v-581.818182A34.909091 34.909091 0 0 0 244.363636 186.181818z m81.454546 167.307637v179.502545l120.808727-120.808727a255.115636 255.115636 0 0 0-120.785454-58.693818z m372.363636-1.093819a257.163636 257.163636 0 0 0-121.856 57.856L698.181818 532.061091z" p-id="37711"></path></svg>