<?xml version="1.0" standalone="no"?><!DOCTYPE svg PUBLIC "-//W3C//DTD SVG 1.1//EN" "http://www.w3.org/Graphics/SVG/1.1/DTD/svg11.dtd"><svg t="1760320196760" class="icon" viewBox="0 0 1024 1024" version="1.1" xmlns="http://www.w3.org/2000/svg" p-id="13719" xmlns:xlink="http://www.w3.org/1999/xlink" width="128" height="128"><path d="M1024 384c0 70.58-57.42 128-128 128a127.486667 127.486667 0 0 1-85.333333-32.62A127.953333 127.953333 0 0 1 629.333333 468.666667a128 128 0 0 1-192 0 127.833333 127.833333 0 0 1-181.333333 10.706666A127.486667 127.486667 0 0 1 170.666667 512c-70.58 0-128-57.42-128-128a21.233333 21.233333 0 0 1 2-8.94l110.806666-240.153333A85.573333 85.573333 0 0 1 232.946667 85.333333h600.773333a85.573333 85.573333 0 0 1 77.473333 49.573334l110.84 240.153333A21.233333 21.233333 0 0 1 1024 384z m-42.666667 192v320a85.426667 85.426667 0 0 1-85.333333 85.333333h-64a21.333333 21.333333 0 0 1-21.333333-21.333333v-234.666667a85.333333 85.333333 0 0 0-170.666667 0v234.666667a21.333333 21.333333 0 0 1-21.333333 21.333333H170.666667a85.426667 85.426667 0 0 1-85.333334-85.333333V576a21.333333 21.333333 0 0 1 34.146667-17.06 85.333333 85.333333 0 0 0 119.466667-17.086667 21.333333 21.333333 0 0 1 34.106666 0 85.333333 85.333333 0 0 0 145.093334-14 21.333333 21.333333 0 0 1 38.373333 0 85.373333 85.373333 0 0 0 153.626667 0 21.333333 21.333333 0 0 1 38.373333 0 85.333333 85.333333 0 0 0 145.093333 14 21.333333 21.333333 0 0 1 34.106667 0 85.333333 85.333333 0 0 0 119.466667 17.086667A21.333333 21.333333 0 0 1 981.333333 576z m-512 234.666667V640H256v170.666667z"  p-id="13720"></path></svg>