<?xml version="1.0" standalone="no"?><!DOCTYPE svg PUBLIC "-//W3C//DTD SVG 1.1//EN" "http://www.w3.org/Graphics/SVG/1.1/DTD/svg11.dtd"><svg t="1760318177441" class="icon" viewBox="0 0 1024 1024" version="1.1" xmlns="http://www.w3.org/2000/svg" p-id="5625" xmlns:xlink="http://www.w3.org/1999/xlink" width="200" height="200"><path d="M463.7696 454.5536a195.2256 195.2256 0 1 0-195.2256-195.2256 195.072 195.072 0 0 0 195.2256 195.2256z m0-321.536A126.3616 126.3616 0 1 1 337.408 259.328 126.208 126.208 0 0 1 463.7696 133.12zM463.7696 501.4528a424.1408 424.1408 0 0 0-424.0384 423.9872 34.4576 34.4576 0 0 0 68.9152 0 355.4816 355.4816 0 0 1 307.8144-352.3584l-72.1408 234.2912a35.84 35.84 0 0 0 5.9904 31.744l87.04 107.9296a34.56 34.56 0 0 0 53.76 0l86.3744-107.9296a34.816 34.816 0 0 0 6.4512-31.744l-72.3968-234.2912a331.1104 331.1104 0 0 1 129.0752 43.6736 34.6112 34.6112 0 0 0 45.5168-10.24 34.0992 34.0992 0 0 0-8.7552-47.7696 405.6064 405.6064 0 0 0-213.6064-57.2928z m48.6912 308.224L463.7696 870.4l-48.2304-60.672 48.2304-156.6208zM780.288 686.08h169.5232a34.4576 34.4576 0 0 0 0-68.9152H780.288a34.4576 34.4576 0 0 0 0 68.9152zM949.8112 742.4h-84.992a34.4576 34.4576 0 1 0 0 68.9152h84.992a34.4576 34.4576 0 0 0 0-68.9152zM949.8112 868.0448H780.288a34.4576 34.4576 0 0 0 0 68.9152h169.5232a34.4576 34.4576 0 1 0 0-68.9152z"  p-id="5626"></path></svg>