<?xml version="1.0" standalone="no"?><!DOCTYPE svg PUBLIC "-//W3C//DTD SVG 1.1//EN" "http://www.w3.org/Graphics/SVG/1.1/DTD/svg11.dtd"><svg t="1760318642198" class="icon" viewBox="0 0 1024 1024" version="1.1" xmlns="http://www.w3.org/2000/svg" p-id="18763" xmlns:xlink="http://www.w3.org/1999/xlink" width="200" height="200"><path d="M960 449.4336 960 234.7008c0-46.8992-36.352-85.2992-80.7936-85.2992L144.7936 149.4016c-44.4416 0-80.7936 38.4-80.7936 85.2992l0 214.8352c34.816 4.7104 60.6208 22.8352 60.6208 62.5664s-25.8048 57.7536-60.6208 62.5664l0 214.8352c0 46.8992 36.352 85.2992 80.7936 85.2992l734.3104 0c44.4416 0 80.7936-38.4 80.7936-85.2992L959.8976 574.5664c-34.816-4.7104-60.6208-22.8352-60.6208-62.5664C899.3792 472.2688 925.184 454.2464 960 449.4336zM917.2992 606.8224l0 182.4768c0 23.1424-17.5104 42.7008-38.1952 42.7008l-79.1552 0 0-42.7008c0-11.776-9.5232-21.2992-21.2992-21.2992-11.776 0-21.2992 9.5232-21.2992 21.2992l0 42.7008L266.6496 832l0-42.7008c0-11.776-9.5232-21.2992-21.2992-21.2992-11.776 0-21.2992 9.5232-21.2992 21.2992l0 42.7008-79.1552 0c-20.6848 0-38.1952-19.5584-38.1952-42.7008L106.7008 606.8224c38.6048-16.6912 60.6208-50.2784 60.6208-94.8224s-22.1184-78.1312-60.6208-94.8224L106.7008 234.7008c0-23.1424 17.5104-42.7008 38.1952-42.7008l79.1552 0 0 42.7008c0 11.776 9.5232 21.2992 21.2992 21.2992 11.776 0 21.2992-9.5232 21.2992-21.2992l0-42.7008 490.7008 0 0 42.7008c0 11.776 9.5232 21.2992 21.2992 21.2992 11.776 0 21.2992-9.5232 21.2992-21.2992l0-42.7008 79.1552 0c20.6848 0 38.1952 19.5584 38.1952 42.7008l0 182.4768c-38.6048 16.6912-60.6208 50.2784-60.6208 94.8224S878.7968 590.1312 917.2992 606.8224z" p-id="18764"></path><path d="M408.7808 409.6l0-51.2c0-7.4752 2.1504-14.4384 6.3488-20.7872 1.024-1.024 1.6384-2.1504 1.6384-3.1744-1.024-3.1744-14.9504-4.8128-41.5744-4.8128 2.1504 7.4752 3.1744 18.1248 3.1744 31.9488l0 49.5616c-25.6 0-42.7008-1.024-51.2-3.1744l0 35.2256c4.3008-1.024 9.6256-2.1504 15.9744-3.1744 5.3248 0 17.1008 0 35.2256 0l0 78.4384c-28.7744 9.6256-46.8992 14.9504-54.3744 15.9744l7.9872 41.5744c1.024 0 5.3248-2.1504 12.8-6.3488 11.776-7.4752 22.9376-13.824 33.5872-19.2512l0 84.7872c0 9.6256-3.1744 14.9504-9.6256 15.9744-5.3248 2.1504-18.1248 1.6384-38.4-1.6384 9.6256 12.8 13.824 25.6 12.8 38.4 46.8992-3.1744 68.8128-13.312 65.6384-30.4128L408.7808 539.2384c-5.3248 0 9.6256-6.3488 44.8512-19.2512l0-36.7616c-2.1504 1.024-5.8368 3.1744-11.1616 6.3488-17.1008 8.4992-28.2624 13.824-33.5872 15.9744l0-67.1744c18.1248 0 29.2864 0 33.5872 0 6.3488 1.024 11.776 2.1504 15.9744 3.1744l0-35.2256c-4.3008 1.024-9.6256 2.1504-15.9744 3.1744C439.1936 409.6 428.032 409.6 408.7808 409.6z" p-id="18765"></path><path d="M666.4192 606.4128c0 22.4256-3.1744 35.2256-9.6256 38.4-30.9248-25.6-50.176-73.6256-57.5488-143.9744l23.9616 0c22.4256 0 36.2496 0 41.5744 0 6.3488 1.024 11.1616 2.1504 14.4384 3.1744l0-31.9488c-9.6256 2.1504-28.7744 3.1744-57.5488 3.1744l-23.9616 0c-2.1504-31.9488-2.6624-62.3616-1.6384-91.2384 26.624-4.3008 47.4112-4.8128 62.3616-1.6384 2.1504 0 3.6864 0 4.8128 0 1.024 0-3.1744-8.4992-12.8-25.6-4.3008-7.4752-6.9632-12.8-7.9872-15.9744-18.1248 6.3488-53.8624 13.312-107.2128 20.7872-24.576 2.1504-45.8752 2.1504-64 0 1.024 3.1744 1.6384 10.6496 1.6384 22.4256 0 10.6496 0 28.2624 0 52.8384l0 195.1744c1.024 13.824-3.1744 23.9616-12.8 30.4128l15.9744 31.9488c22.4256-24.576 49.0496-49.0496 79.9744-73.6256l-12.8-35.2256L504.832 627.2 504.832 500.8384l64 0c9.6256 82.1248 29.9008 138.1376 60.8256 168.0384 15.9744 15.9744 28.7744 22.9376 38.4 20.7872 7.4752-1.1264 18.1248-21.2992 31.9488-60.8256C690.3808 627.712 679.2192 620.2368 666.4192 606.4128zM504.832 475.2384l0-83.1488 59.1872-4.8128c0 35.2256 1.024 64.512 3.1744 87.9616L504.832 475.2384z" p-id="18766"></path></svg>