<?xml version="1.0" standalone="no"?><!DOCTYPE svg PUBLIC "-//W3C//DTD SVG 1.1//EN" "http://www.w3.org/Graphics/SVG/1.1/DTD/svg11.dtd"><svg t="1760318550312" class="icon" viewBox="0 0 1024 1024" version="1.1" xmlns="http://www.w3.org/2000/svg" p-id="16493" xmlns:xlink="http://www.w3.org/1999/xlink" width="200" height="200"><path d="M492.184658 620.197222c0 13.655009 7.135333 26.211887 18.663185 33.005468 11.666061 6.861428 25.870135 6.861428 37.465836 0a38.219701 38.219701 0 0 0 18.664441-32.93762 38.220957 38.220957 0 0 0-18.664441-33.073315 36.848923 36.848923 0 0 0-37.465836 0 38.219701 38.219701 0 0 0-18.663185 33.005467z m-131.061949 0a37.738483 37.738483 0 0 0 37.396731 38.151853A37.740996 37.740996 0 0 0 435.985276 620.197222a37.740996 37.740996 0 0 0-37.465836-38.084005 37.738483 37.738483 0 0 0-37.396731 38.084005z m-131.060692 0c0 13.655009 7.135333 26.211887 18.73229 33.005468 11.596957 6.861428 25.868879 6.861428 37.396731 0a38.220957 38.220957 0 0 0 18.733546-32.93762 38.219701 38.219701 0 0 0-18.733546-33.073315 36.845153 36.845153 0 0 0-37.396731 0 38.220957 38.220957 0 0 0-18.664442 33.005467h-0.067848z m32.593355-339.112363h500.434454c19.114248-0.446037 34.408913-16.01335 34.514454-35.132623-0.105541-19.12053-15.400206-34.687843-34.514454-35.132624H262.655372c-19.115504 0.44478-34.408913 16.012093-34.515711 35.132624 0 19.21225 14.822243 35.132623 34.515711 35.132623zM601.287774 842.726871h296.431038a23.32961 23.32961 0 0 0 22.506641-16.60639 23.328353 23.328353 0 0 0-21.820624-29.780182H601.836839c-12.489031 0-23.330866 10.292771-23.330866 22.987858a22.849649 22.849649 0 0 0 22.781801 23.32961v0.069104" p-id="16494"></path><path d="M836.168245 960.750724l114.044702-116.102753a24.358636 24.358636 0 0 0 4.459112-27.996035 22.638567 22.638567 0 0 0-16.752138-11.899759 22.638567 22.638567 0 0 0-19.477359 6.547317l-114.11255 116.239706c-8.854145 9.164486-9.094125 23.621104-0.549065 33.073315 8.71468 9.126793 23.055706 9.606753 32.387298 0.138209"  p-id="16495"></path><path d="M917.961345 843.755897c7.205693 7.342645 18.390537 9.400697 27.448226 4.528216a23.535666 23.535666 0 0 0 5.214233-36.847666l-114.11255-116.239706c-8.839067-9.086587-23.345944-9.361747-32.52425-0.616913-9.100407 9.109202-9.131818 23.858572-0.069105 33.005468l113.975598 116.170601h0.067848M262.655372 471.775018h500.365349c19.115504-0.44478 34.408913-16.01335 34.515711-35.132623-0.069104-19.146915-15.373821-34.755691-34.515711-35.201728h-500.365349c-19.14189 0.446037-34.446606 16.054812-34.515711 35.201728 0 19.00745 14.822243 35.132623 34.515711 35.132623z m229.529286 148.422204c0 13.655009 7.135333 26.211887 18.663185 33.005468 11.666061 6.861428 25.870135 6.861428 37.465836 0a38.219701 38.219701 0 0 0 18.664441-32.93762 38.220957 38.220957 0 0 0-18.664441-33.073315 36.848923 36.848923 0 0 0-37.465836 0 38.219701 38.219701 0 0 0-18.663185 33.005467z m-131.061949 0a37.738483 37.738483 0 0 0 37.396731 38.151853A37.740996 37.740996 0 0 0 435.985276 620.197222a37.740996 37.740996 0 0 0-37.465836-38.084005 37.738483 37.738483 0 0 0-37.396731 38.084005z m-131.060692 0c0 13.655009 7.135333 26.211887 18.73229 33.005468 11.596957 6.861428 25.868879 6.861428 37.396731 0a38.220957 38.220957 0 0 0 18.733546-32.93762 38.219701 38.219701 0 0 0-18.733546-33.073315 36.845153 36.845153 0 0 0-37.396731 0 38.220957 38.220957 0 0 0-18.664442 33.005467h-0.067848z"  p-id="16496"></path><path d="M133.789683 956.221252V68.778876h756.518636v369.44161c0 18.52749 14.822243 33.486685 33.074572 33.486685a33.280628 33.280628 0 0 0 33.073315-33.486685V62.946474A60.654724 60.654724 0 0 0 896.003769 0.91469H126.996103A60.728854 60.728854 0 0 0 66.612771 61.985296v900.00051c0 33.691485 26.967009 61.070606 60.383332 61.070606H534.452613a33.276859 33.276859 0 0 0 33.074572-33.486684 33.280628 33.280628 0 0 0-33.074572-33.485429H133.789683v0.136953"  p-id="16497"></path></svg>