<?xml version="1.0" standalone="no"?><!DOCTYPE svg PUBLIC "-//W3C//DTD SVG 1.1//EN" "http://www.w3.org/Graphics/SVG/1.1/DTD/svg11.dtd"><svg t="1760318576738" class="icon" viewBox="0 0 1024 1024" version="1.1" xmlns="http://www.w3.org/2000/svg" p-id="16654" xmlns:xlink="http://www.w3.org/1999/xlink" width="200" height="200"><path d="M616.448 795.648H179.2a25.6 25.6 0 0 1-25.6-25.6v-384a25.6 25.6 0 0 1 25.6-25.6h102.4v251.648H244.224a25.6 25.6 0 0 0 0 51.2h399.104a207.104 207.104 0 0 1 43.008-51.2H332.8v-486.4h358.4v481.792a204.8 204.8 0 0 1 51.2-29.696v-217.344h102.4a25.6 25.6 0 0 1 25.6 25.6v183.808a209.152 209.152 0 0 1 51.2 20.992v-204.8a76.8 76.8 0 0 0-76.8-76.8h-102.4V100.352a25.6 25.6 0 0 0-25.6-25.6H307.2a25.6 25.6 0 0 0-25.6 25.6v208.896H179.2a76.8 76.8 0 0 0-76.8 76.8v384a76.8 76.8 0 0 0 76.8 76.8h451.072a201.728 201.728 0 0 1-13.824-51.2z" p-id="16655"></path><path d="M512 372.992a25.6 25.6 0 0 1-18.176-7.424l-66.048-66.048a25.6 25.6 0 0 1 36.352-36.352L512 311.296l47.872-48.128a25.6 25.6 0 0 1 36.352 36.352l-66.048 66.048a25.6 25.6 0 0 1-18.176 7.424z" p-id="16656"></path><path d="M578.048 381.952h-132.096a25.6 25.6 0 0 1 0-51.2h132.096a25.6 25.6 0 0 1 0 51.2zM578.048 464.384h-132.096a25.6 25.6 0 0 1 0-51.2h132.096a25.6 25.6 0 0 1 0 51.2z" p-id="16657"></path><path d="M512 563.2a25.6 25.6 0 0 1-25.6-25.6v-197.888a25.6 25.6 0 1 1 51.2 0V537.6a25.6 25.6 0 0 1-25.6 25.6z" p-id="16658"></path><path d="M822.528 617.728a153.6 153.6 0 1 0 153.6 153.6 153.6 153.6 0 0 0-153.6-153.6z m69.376 145.664a25.6 25.6 0 0 1-36.096 0l-7.68-7.424v92.16a25.6 25.6 0 1 1-51.2 0v-91.392l-7.424 7.68a25.6 25.6 0 0 1-36.096-36.352l51.2-51.2a25.6 25.6 0 0 1 18.944-8.96 25.6 25.6 0 0 1 18.432 7.68l51.2 51.2a25.6 25.6 0 0 1-1.28 36.608z" p-id="16659"></path></svg>