<?xml version="1.0" standalone="no"?><!DOCTYPE svg PUBLIC "-//W3C//DTD SVG 1.1//EN" "http://www.w3.org/Graphics/SVG/1.1/DTD/svg11.dtd"><svg t="1737361844648" class="icon" viewBox="0 0 1024 1024" version="1.1" xmlns="http://www.w3.org/2000/svg" p-id="36428" xmlns:xlink="http://www.w3.org/1999/xlink" width="128" height="128"><path d="M227.7376 704.295822v-0.113778c0 50.904178 127.317333 92.16 284.353422 92.16 152.2688 0 276.593778-38.798222 284.000711-87.552v47.695645c0.227556 1.547378 0.352711 3.106133 0.352711 4.664889C796.444444 812.077511 669.127111 853.333333 512.091022 853.333333c-155.306667 0-281.543111-40.368356-284.296533-90.498844l-0.045511-1.1264-0.011378-57.412267zM511.908978 170.666667c101.034667 0 182.954667 20.764444 182.954666 46.364444l-0.011377 0.568889v124.017778l-0.022756-0.011378 0.034133 0.568889c0 17.123556-36.670578 32.085333-91.192888 40.118044v147.7632c112.014222 13.118578 192.591644 49.607111 192.591644 92.558223 0 1.308444-0.079644 2.616889-0.227556 3.913955h0.034134l0.034133 73.1136a32.915911 32.915911 0 0 0-1.7408-6.678755l-0.910222-2.184534-0.648533 1.365334c-21.833956 43.884089-139.195733 77.391644-280.712534 77.391644-142.995911 0-261.347556-34.224356-281.372444-78.756978-1.570133 3.492978-2.525867 7.054222-2.844445 10.672356l-0.136533 2.685155v-77.6192a45.147022 45.147022 0 0 1-0.182044-3.902577c0-42.962489 80.577422-79.439644 192.591644-92.558223V382.293333c-54.533689-8.032711-91.192889-22.983111-91.192889-40.118044V217.588622h0.022756l-0.022756-0.557511c0-25.213156 79.416889-45.727289 178.301156-46.353067l4.653511-0.011377z m270.756978 428.145777l-0.489245 1.080889C762.857244 641.115022 649.250133 672.768 512 672.768c-138.467556 0-252.859733-32.199111-270.665956-73.955556-1.581511 3.731911-2.400711 7.520711-2.400711 11.377778 0 47.126756 122.254222 85.333333 273.066667 85.333334s273.066667-38.206578 273.066667-85.333334c0-3.857067-0.8192-7.645867-2.400711-11.377778z" p-id="36429"></path></svg>