<?xml version="1.0" standalone="no"?><!DOCTYPE svg PUBLIC "-//W3C//DTD SVG 1.1//EN" "http://www.w3.org/Graphics/SVG/1.1/DTD/svg11.dtd"><svg t="1737363310286" class="icon" viewBox="0 0 1024 1024" version="1.1" xmlns="http://www.w3.org/2000/svg" p-id="97961" xmlns:xlink="http://www.w3.org/1999/xlink" width="128" height="128"><path d="M159.004542 70.627536A70.599092 70.599092 0 0 0 88.234784 141.084405v812.458441A70.542203 70.542203 0 0 0 159.004542 1023.999716h706.047804a70.599092 70.599092 0 0 0 70.71287-70.45687V141.084405a70.542203 70.542203 0 0 0-70.71287-70.456869H759.182154l35.299545 35.299546V52.906652c0-29.098659-23.694216-52.906652-52.906652-52.906652H282.453397c-29.326214 0-52.906652 23.694216-52.906652 52.906652v53.02043L264.817846 70.627536H159.004542z m141.141295 70.627536V52.906652c0 9.699553-7.964442 17.720884-17.720884 17.720884H741.546603a17.635551 17.635551 0 0 1-17.720884-17.720884v88.34842h141.141294c0.142222 0 0.113778 812.287774 0.113778 812.287774 0-0.170667-706.133137-0.170667-706.133137-0.170666-0.113778 0-0.085333-812.287774-0.085334-812.287775 0 0.142222 105.927082 0.170667 105.927082 0.170667h35.32799z m423.708326 17.692439c0-9.699553 7.964442-17.69244 17.720884-17.692439H282.453397a17.635551 17.635551 0 0 1 17.720884 17.692439V105.927082a35.299546 35.299546 0 0 0-70.627536 0v53.020429c0 29.098659 23.694216 52.906652 52.906652 52.906652H741.546603c29.326214 0 52.906652-23.694216 52.906652-52.906652V105.927082a35.299546 35.299546 0 0 0-70.627536 0v53.020429z m0 282.453255a35.299546 35.299546 0 0 0 0-70.65598H300.145837a35.299546 35.299546 0 0 0 0 70.627536h423.708326zM300.145837 547.270959a35.299546 35.299546 0 0 0 0 70.627536h423.708326a35.299546 35.299546 0 0 0 0-70.627536H300.145837z m0 176.554618a35.299546 35.299546 0 0 0 0 70.627536h282.453255a35.299546 35.299546 0 0 0 0-70.627536h-282.453255z"  p-id="97962"></path></svg>