<?xml version="1.0" standalone="no"?><!DOCTYPE svg PUBLIC "-//W3C//DTD SVG 1.1//EN" "http://www.w3.org/Graphics/SVG/1.1/DTD/svg11.dtd"><svg t="1737363097115" class="icon" viewBox="0 0 1024 1024" version="1.1" xmlns="http://www.w3.org/2000/svg" p-id="87986" xmlns:xlink="http://www.w3.org/1999/xlink" width="128" height="128"><path d="M636.480587 904.382603l-10.238294-32.591901c174.733544-55.628062 159.546742-214.66289 158.522913-221.488419l34.127645-3.583403A249.30245 249.30245 0 0 1 636.480587 904.382603z"  p-id="87987"></path><path d="M511.744043 61.6004l292.985835 443.65939A290.084986 290.084986 0 0 1 870.084319 684.771205C870.084319 850.119647 706.271621 989.701716 511.744043 989.701716 314.315614 989.701716 153.403766 850.290285 153.403766 678.45759a305.271788 305.271788 0 0 1 64.671888-177.97567L511.744043 61.6004M511.744043 0L190.6029 480.005332A341.276454 341.276454 0 0 0 119.276121 678.45759C119.276121 870.254958 297.763706 1023.829362 511.744043 1023.829362s392.467922-153.574404 392.467922-339.228795a325.577737 325.577737 0 0 0-70.985503-198.28162L511.744043 0z"  p-id="87988"></path><path d="M370.626229 402.535577h51.191468L511.744043 570.443593l90.608898-167.908016h51.191468l-104.771871 183.777371h76.275287v25.595734h-90.608898v50.167639h90.608898v25.595734h-90.608898V767.872021h-45.048492v-80.199966h-90.096984v-25.595734h90.096984v-50.167639h-90.096984v-25.595734h75.763373z"  p-id="87989"></path></svg>