<?xml version="1.0" standalone="no"?><!DOCTYPE svg PUBLIC "-//W3C//DTD SVG 1.1//EN" "http://www.w3.org/Graphics/SVG/1.1/DTD/svg11.dtd"><svg t="1737358791368" class="icon" viewBox="0 0 1024 1024" version="1.1" xmlns="http://www.w3.org/2000/svg" p-id="3449" xmlns:xlink="http://www.w3.org/1999/xlink" width="200" height="200"><path d="M534.5 709.5H320.7c-17.6 0-32.1-14.4-32.1-32.1 0-17.6 14.4-32.1 32.1-32.1h213.8c17.6 0 32.1 14.4 32.1 32.1 0 17.7-14.4 32.1-32.1 32.1zM534.5 829.2H320.7c-17.6 0-32.1-14.4-32.1-32.1 0-17.6 14.4-32.1 32.1-32.1h213.8c17.6 0 32.1 14.4 32.1 32.1 0 17.7-14.4 32.1-32.1 32.1z" p-id="3450"></path><path d="M833.7 321.8h-78.2V157c0-51-43-92.4-94-92.4H186.7c-51 0-92.3 41.3-92.3 92.4v710c0 51 41.3 92.3 92.3 92.4h650.1c48.3-1.7 87.1-41.4 87.1-90.2V412c0-49.8-40.4-90.2-90.2-90.2zM690 896.2H200.6c-23.7 0-43-19.9-43-44.3V172.2c0-24.5 19.3-44.3 43-44.3h446.2c23.7 0 43.1 19.9 43.1 44.3l0.1 724z m65.5-515.8h67.3c21 0 38 13.2 38 29.4v457c0 16.2-17 29.4-38 29.4h-67.3V380.4z"  p-id="3451"></path><path d="M549.1 436.8h-89.5v-61.4h88.1c17.5 0 31.8-14.3 31.8-31.8s-14.3-31.8-31.8-31.8h-65.2l69.6-69.6c13.1-13.1 13.1-34.5 0-47.5-13.1-13.1-34.5-13.1-47.5 0l-77.5 77.5-76.5-76.5c-13.1-13.1-34.5-13.1-47.5 0-13.1 13.1-13.1 34.5 0 47.5l68.6 68.6h-65.6c-17.5 0-31.8 14.3-31.8 31.8s14.3 31.8 31.8 31.8h89.4v61.4h-88.1c-17.5 0-31.8 14.3-31.8 31.8s14.3 31.8 31.8 31.8h88.1v77.4c0 17.6 14.4 32.1 32.1 32.1 17.6 0 32.1-14.4 32.1-32.1v-77.4h89.5c17.5 0 31.8-14.3 31.8-31.8-0.1-17.5-14.4-31.8-31.9-31.8z"  p-id="3452"></path></svg>