<?xml version="1.0" standalone="no"?><!DOCTYPE svg PUBLIC "-//W3C//DTD SVG 1.1//EN" "http://www.w3.org/Graphics/SVG/1.1/DTD/svg11.dtd"><svg t="1737364389127" class="icon" viewBox="0 0 1024 1024" version="1.1" xmlns="http://www.w3.org/2000/svg" p-id="130314" xmlns:xlink="http://www.w3.org/1999/xlink" width="128" height="128"><path d="M512 192a32 32 0 0 1 32 32v32a32 32 0 0 1-32 32H160v480h704v-32a32 32 0 0 1 32-32h32a32 32 0 0 1 32 32v48a80 80 0 0 1-80 80h-736A80 80 0 0 1 64 784v-512A80 80 0 0 1 144 192H512z m208 240a224.064 224.064 0 0 1 215.584 162.976l4.352 15.392a32 32 0 0 1-22.08 39.488l-30.816 8.704a32 32 0 0 1-39.488-22.08l-4.352-15.392a128.064 128.064 0 0 0-246.4 0l-4.352 15.392a32 32 0 0 1-39.488 22.08l-30.784-8.704a32 32 0 0 1-22.08-39.488l4.32-15.392A224.064 224.064 0 0 1 720 432z m-336 128a32 32 0 0 1 32 32v32a32 32 0 0 1-32 32H224a32 32 0 0 1-32-32v-32a32 32 0 0 1 32-32h160z m64-160a32 32 0 0 1 32 32v32a32 32 0 0 1-32 32H224a32 32 0 0 1-32-32v-32a32 32 0 0 1 32-32h224zM720 160a128 128 0 1 1 0 256 128 128 0 0 1 0-256z m0 96a32 32 0 1 0 0 64 32 32 0 0 0 0-64z"  p-id="130315"></path></svg>