<?xml version="1.0" standalone="no"?><!DOCTYPE svg PUBLIC "-//W3C//DTD SVG 1.1//EN" "http://www.w3.org/Graphics/SVG/1.1/DTD/svg11.dtd"><svg t="1737362890183" class="icon" viewBox="0 0 1097 1024" version="1.1" xmlns="http://www.w3.org/2000/svg" p-id="74616" xmlns:xlink="http://www.w3.org/1999/xlink" width="137.125" height="128"><path d="M1005.714286 791.259429v139.666285C1005.714286 982.308571 964.754286 1024 914.285714 1024H182.857143c-100.973714 0-182.857143-83.382857-182.857143-186.148571V93.037714C0 41.691429 40.96 0 91.428571 0h731.428572C873.325714 0 914.285714 41.691429 914.285714 93.074286v93.110857c50.468571 0 91.428571 41.691429 91.428572 93.074286v139.666285c50.468571 0 91.428571 41.691429 91.428571 93.074286v186.148571c0 51.456-40.96 93.110857-91.428571 93.110858z m-91.428572 0h-137.142857c-100.973714 0-182.857143-83.346286-182.857143-186.148572 0-102.838857 81.883429-186.185143 182.857143-186.185143H914.285714V279.259429H91.428571V837.851429c0 51.419429 40.96 93.110857 91.428572 93.110857h731.428571v-139.666286zM91.428571 186.185143h731.428572V93.074286h-731.428572v93.110857zM777.142857 512c-50.468571 0-91.428571 41.691429-91.428571 93.074286 0 51.419429 40.96 93.110857 91.428571 93.110857h228.571429V512h-228.571429z m0 139.629714c-25.234286 0-45.714286-20.845714-45.714286-46.555428 0-25.673143 20.48-46.518857 45.714286-46.518857s45.714286 20.845714 45.714286 46.518857c0 25.709714-20.48 46.555429-45.714286 46.555428z"  p-id="74617"></path></svg>