<svg xmlns="http://www.w3.org/2000/svg" xmlns:xlink="http://www.w3.org/1999/xlink" viewBox="0 0 32 32" width="18" height="18" style="" filter="none">
    
    <g>
    <path d="M16 2.667c7.364 0 13.333 5.969 13.333 13.333s-5.969 13.333-13.333 13.333-13.333-5.969-13.333-13.333 5.969-13.333 13.333-13.333zM16 5.333c-5.891 0-10.667 4.776-10.667 10.667s4.776 10.667 10.667 10.667v0c5.891 0 10.667-4.776 10.667-10.667s-4.776-10.667-10.667-10.667v0zM16.667 9.333c0 0 0.001 0 0.001 0 2.577 0 4.667 2.089 4.667 4.667 0 1.68-0.888 3.153-2.221 3.975l-0.020 0.012 3.397 4.68h-3.296l-2.907-4h-2.955v4h-2.667v-13.333h6zM16.667 12h-3.333v4h3.333c1.037-0 1.89-0.789 1.99-1.8l0.001-0.008 0.009-0.192c0-1.105-0.895-2-2-2v0z" ></path>
    </g>
  </svg>