<?xml version="1.0" standalone="no"?><!DOCTYPE svg PUBLIC "-//W3C//DTD SVG 1.1//EN" "http://www.w3.org/Graphics/SVG/1.1/DTD/svg11.dtd"><svg t="1738981617082" class="icon" viewBox="0 0 1024 1024" version="1.1" xmlns="http://www.w3.org/2000/svg" p-id="2451" xmlns:xlink="http://www.w3.org/1999/xlink" width="128" height="128"><path d="M811.11 797.06A325.62 325.62 0 0 0 647 628.14a241.09 241.09 0 0 0 32.65-27.33 237.44 237.44 0 1 0-335.79 0 240.46 240.46 0 0 0 32.85 27.46 324.35 324.35 0 0 0-189.35 295.16 36 36 0 0 0 72 0c0-139.3 113.33-252.63 252.64-252.63s252.64 113.33 252.64 252.63a36 36 0 0 0 72 0 322.63 322.63 0 0 0-25.53-126.37zM511.77 267.48c91.22 0 165.43 74.22 165.43 165.44S603 598.35 511.77 598.35s-165.44-74.21-165.44-165.43 74.21-165.44 165.44-165.44z" p-id="2452"></path><path d="M324.4 128.62a237.46 237.46 0 0 0-195.75 371.84 238.82 238.82 0 0 0 41.25 45.93A325.22 325.22 0 0 0 0 831.87a36 36 0 0 0 72 0c0-114.32 77-214.71 187.34-244.13a36 36 0 0 0-0.22-69.62A164.77 164.77 0 0 1 159 366.05c0-91.22 74.21-165.43 165.43-165.43a36 36 0 0 0 0-72zM854.1 546.39a238.82 238.82 0 0 0 41.25-45.93A237.45 237.45 0 0 0 699.6 128.62a36 36 0 0 0 0 72c91.22 0 165.43 74.21 165.43 165.43a164.75 164.75 0 0 1-100.16 152.07 36 36 0 0 0-0.21 69.62C875 617.16 952 717.55 952 831.87a36 36 0 0 0 72 0 325.22 325.22 0 0 0-169.9-285.48z" p-id="2453"></path></svg>