<?xml version="1.0" standalone="no"?><!DOCTYPE svg PUBLIC "-//W3C//DTD SVG 1.1//EN" "http://www.w3.org/Graphics/SVG/1.1/DTD/svg11.dtd"><svg t="1737364055848" class="icon" viewBox="0 0 1024 1024" version="1.1" xmlns="http://www.w3.org/2000/svg" p-id="119537" xmlns:xlink="http://www.w3.org/1999/xlink" width="128" height="128"><path d="M727.738182 275.549091L325.818182 131.723636a60.741818 60.741818 0 0 0-77.730909 35.141819l-37.469091 99.141818-65.396364-23.272728 36.538182-100.072727A131.490909 131.490909 0 0 1 349.090909 65.861818L751.243636 209.454545z" p-id="119538"></path><path d="M872.727273 954.181818h-721.454546A128.232727 128.232727 0 0 1 23.272727 826.181818v-488.727273A128.232727 128.232727 0 0 1 151.272727 209.454545h721.454546a128.232727 128.232727 0 0 1 128 128v488.727273a128.232727 128.232727 0 0 1-128 128z m-721.454546-674.909091A58.181818 58.181818 0 0 0 93.090909 337.454545v488.727273A58.181818 58.181818 0 0 0 151.272727 884.363636h721.454546a58.181818 58.181818 0 0 0 58.181818-58.181818v-488.727273a58.181818 58.181818 0 0 0-58.181818-58.181818z" p-id="119539"></path><path d="M512 753.570909a34.676364 34.676364 0 0 1-31.185455-19.781818l-128.232727-264.843636a34.909091 34.909091 0 0 1 62.836364-30.254546L512 639.534545l99.374545-199.447272A34.909091 34.909091 0 0 1 674.909091 471.272727l-131.258182 262.981818a34.676364 34.676364 0 0 1-31.650909 19.316364z" p-id="119540"></path></svg>