<?xml version="1.0" standalone="no"?><!DOCTYPE svg PUBLIC "-//W3C//DTD SVG 1.1//EN" "http://www.w3.org/Graphics/SVG/1.1/DTD/svg11.dtd"><svg t="1569301891561" class="icon" viewBox="0 0 1443 1024" version="1.1" xmlns="http://www.w3.org/2000/svg" p-id="5732" xmlns:xlink="http://www.w3.org/1999/xlink" width="281.8359375" height="200"><defs><style type="text/css"></style></defs><path d="M1097.403681 996.675067c-168.495761 9.135791-313.42383-119.877465-322.612582-287.234562-9.188752-167.330617 120.698362-311.252424 289.220604-320.388215a305.903352 305.903352 0 0 1 171.249739 41.071338 21.449248 21.449248 0 0 1 7.67936 29.817103c-6.434774 10.353896-19.62209 14.008213-30.028947 7.599919a262.766531 262.766531 0 0 0-146.755227-34.980811c-144.610302 7.917685-255.828626 130.840414-247.857979 274.470936 7.970647 143.604041 131.740753 254.054429 276.351054 246.136743 144.610302-7.917685 255.828626-130.840414 247.85798-274.444455a259.138695 259.138695 0 0 0-3.071744-27.089606 21.449248 21.449248 0 0 1 18.377504-24.626915 21.52869 21.52869 0 0 1 24.812278 18.245102c1.853639 10.645182 2.780458 20.999079 3.389511 31.644261 9.797805 167.039331-120.11579 310.669852-288.611551 319.779162z m16.550346-233.982169l-76.899527 30.743922 37.364061-76.369916 218.464565-216.955173 42.872016 42.60721-221.801115 219.973957z m240.496385-238.854591l-42.898496-42.58073 26.056864-25.871501a18.403985 18.403985 0 0 1 25.739098 0l17.159399 17.053476c7.043827 6.990866 7.043827 18.536387 0 25.553734l-26.056865 25.845021z m-952.055334 83.28134a66.068981 66.068981 0 0 1-66.280826 65.857136 66.068981 66.068981 0 0 1-66.307305-65.857136 66.068981 66.068981 0 0 1 66.307305-65.830656 66.068981 66.068981 0 0 1 66.280826 65.830656z m532.206161-221.721673a375.044077 375.044077 0 0 0-105.233719 73.589457 1855.068685 1855.068685 0 0 1-599.334364-26.32167l-32.438678-6.805502 11.413118-30.902806c5.852202-15.861851 25.024123-68.531672 27.116087-74.224991 22.720315-61.885053 38.873452-102.373819 57.91297-143.10091l1.9066-3.442472c13.690446-21.07852 35.4045-35.775228 58.310179-40.329883a541.050666 541.050666 0 0 1 122.287195-18.562868c108.543788 1.032742 222.410168 4.422252 355.051259 10.168533 59.740128-1.165144 111.800896 40.118038 123.346418 96.601058 1.085703 4.157447 2.224366 8.367855 3.442472 12.631224 6.328852 22.799756 13.87581 46.393929 24.468031 77.535061 1.562353 4.501694 9.771324 28.175309 17.132918 49.598076-18.695271 4.819461-36.807969 11.068871-54.258654 18.562868l-17.23884-49.889363a1479.574438 1479.574438 0 0 1-25.447812-80.553843 738.039503 738.039503 0 0 1-4.025044-14.987993c-6.302372-31.008728-34.212875-53.11999-68.081502-52.510937-133.885678-5.74628-247.116524-9.10931-353.541868-10.168533a489.016379 489.016379 0 0 0-109.814855 16.974035 36.569644 36.569644 0 0 0-22.429029 14.431901c-17.794932 38.29088-33.259575 77.137852-55.079551 136.560214l-15.729449 43.110341a1798.161976 1798.161976 0 0 0 660.266118 2.039003z m25.341889-207.898825a91.251987 91.251987 0 0 0-65.009758-60.004934c-31.273534-8.553219-59.078115-14.405421-116.938124-25.235967a5374.175343 5374.175343 0 0 1-48.538854-9.241713 809.722361 809.722361 0 0 0-236.338939 0.105922h-0.02648l-16.894593 2.462691-1.615314-2.118444-21.449248 3.124705-9.612441 1.42995c-20.390026 2.965822-33.577342 5.004825-49.651038 7.758802a165.609381 165.609381 0 0 0-146.516901 119.798024 1531.449842 1531.449842 0 0 1-57.912971 156.50007c-7.917685 20.257623-29.552298 41.945197-53.225912 41.812794-35.192655-3.045264-51.319312 10.433338-67.97558 52.64334l44.090121 16.126657-0.9533 22.905679a3375.15837 3375.15837 0 0 0-2.992302 99.964089c-0.397208 32.941808-0.529611 65.883617-0.423689 98.825425 0 21.952379 0.026481 31.617781 0.132403 43.666432 0.291286 33.365497 1.218105 60.137337 3.310069 88.52449 0.105922 11.995691 20.866676 23.726576 26.639436 34.159914 50.71026 7.573438 102.267897 7.599919 152.978157 0.079442 2.065483-6.831983 4.157447-16.179618 7.096788-30.955767l3.177667-16.285541c3.786719-19.224882 6.328852-30.982247 9.480038-41.971677l5.852202-14.193576H745.768413c2.065483 19.516168 5.666838 31.909067 10.645182 50.392493H361.005973c-1.032742 4.819461-2.118444 10.274455-3.363031 16.682748l-3.204147 16.364982c-10.777585 54.391057-14.008213 64.903836-36.040033 72.821522l-4.81946 1.271067a578.123441 578.123441 0 0 1-197.544928 0l-11.174794-1.933081-6.805502-8.950427c-16.868112-22.190704-34.95433-49.174388-35.139695-75.072369a1321.803301 1321.803301 0 0 1-3.38951-90.45757c-0.105922-12.234016-0.132403-22.058301-0.132403-44.143082 0-55.556201 0.052961-74.542758 0.423689-99.646323 0.344247-24.520992-1.218105-48.750699-0.079442-78.594282L15.434751 511.683733l-3.760238-17.053477a92.205287 92.205287 0 0 1 0-39.906194l1.138664-3.972083c24.520992-64.559589 58.892751-97.15715 119.374334-94.191328a23.567692 23.567692 0 0 0 4.157447-6.117008 1483.175794 1483.175794 0 0 0 55.953409-150.965635c25.262448-89.054101 103.909691-153.084079 194.181898-160.180867a1487.545085 1487.545085 0 0 1 48.724218-7.67936l9.612441-1.42995c18.456946-2.648055 27.354412-3.998564 37.708308-5.666839l17.106437-2.780458 2.012523 2.621575a869.541931 869.541931 0 0 1 238.298499 2.568614c13.187316 2.621575 20.813715 4.078005 48.671257 9.294674 59.395881 11.121832 88.286165 17.185879 120.989649 26.162787A147.893891 147.893891 0 0 1 1014.281224 159.148126c22.95864 64.082939 47.108904 127.76867 72.397833 190.977751-20.204662 0.397208-40.012116 2.38325-59.289959 5.825721a5568.30428 5568.30428 0 0 1-67.44597-178.452449zM46.655324 462.323981l-0.291286 0.979781h0.02648l20.178182 7.546957 0.794416-2.171405 0.397209-1.774197-21.105001-4.581136z" p-id="5733"></path></svg>