<?xml version="1.0" standalone="no"?><!DOCTYPE svg PUBLIC "-//W3C//DTD SVG 1.1//EN" "http://www.w3.org/Graphics/SVG/1.1/DTD/svg11.dtd"><svg t="1569301894391" class="icon" viewBox="0 0 1443 1024" version="1.1" xmlns="http://www.w3.org/2000/svg" p-id="5871" xmlns:xlink="http://www.w3.org/1999/xlink" width="281.8359375" height="200"><defs><style type="text/css"></style></defs><path d="M1080.11359 996.604227c-168.910588 0-305.875848-136.171259-305.875848-304.181978 0-168.037186 136.96526-304.261378 305.875848-304.261378 168.937054 0 305.875848 136.224192 305.875848 304.261378 0 168.010719-136.938794 304.181978-305.875848 304.181978z m-1.640936-561.120866v-0.0794c-142.576204 0.0794-258.156357 115.024352-258.156357 256.833021 0 141.80867 115.580153 256.833021 258.156357 256.833022s258.129891-115.024352 258.12989-256.833022c0-141.80867-115.580153-256.753621-258.12989-256.753621z m141.649869 212.951205v0.026466l-145.59341 145.143476a24.34938 24.34938 0 0 1-34.247932 0.132334l-0.105867-0.132334-96.709383-96.550583a24.031779 24.031779 0 0 1-7.093081-17.044566 24.190579 24.190579 0 0 1 24.243513-24.137646 24.217046 24.217046 0 0 1 17.176899 7.066614l79.558952 79.453084 128.41651-128.072443a24.481713 24.481713 0 0 1 34.380266 0.026466 23.978846 23.978846 0 0 1-0.026467 34.089132zM403.650771 607.543488a66.193259 66.193259 0 0 1-66.484393 65.902125 66.166792 66.166792 0 0 1-66.457926-65.902125 66.166792 66.166792 0 0 1 66.457926-65.875659c36.709336 0 66.484393 29.483923 66.484393 65.875659z m533.569014-221.896955a376.727249 376.727249 0 0 0-105.496333 73.656873 1862.72754 1862.72754 0 0 1-600.900342-26.36085l-32.527596-6.801946 11.460089-30.913126c5.875611-15.88003 25.090448-68.575264 27.181318-74.292074 22.761377-61.932118 38.959007-102.426195 58.04151-143.184939l1.932071-3.46714c13.736226-21.067507 35.491867-35.783001 58.438511-40.361743a544.182168 544.182168 0 0 1 122.6203-18.553169c108.83114 1.005735 222.98209 4.419942 356.003809 10.16322 59.867714-1.164536 112.086546 40.15001 123.652502 96.682917 1.085135 4.155275 2.223204 8.363483 3.440673 12.624624 6.352012 22.840777 13.921493 46.449088 24.561114 77.600414l17.150432 49.625094c-18.738436 4.816942-36.92107 11.089554-54.389103 18.606102l-17.282766-49.942695a1483.194819 1483.194819 0 0 1-25.513915-80.61762 601.535543 601.535543 0 0 1-4.022941-15.006628c-6.352012-31.018992-34.300865-53.145168-68.257663-52.536433-134.239188-5.769744-247.781404-9.131017-354.468741-10.189686a493.498405 493.498405 0 0 0-110.128009 16.991632 36.60347 36.60347 0 0 0-22.470243 14.450827c-17.838567 38.297339-33.348063 77.176947-55.236038 136.64766l-15.774163 43.140749a1805.506498 1805.506498 0 0 0 661.985524 2.037937z m25.434515-208.054862a91.495441 91.495441 0 0 0-65.187524-60.026514c-31.36306-8.575216-59.232513-14.424361-117.247556-25.249248a5004.379777 5004.379777 0 0 1-48.672292-9.289818 814.195614 814.195614 0 0 0-236.93005 0.132334h-0.026467l-16.965166 2.487871-1.614469-2.143804-21.517441 3.123073-9.607419 1.429202c-20.458772 2.964272-33.665664 5.028676-49.783894 7.754748-69.475132 5.531544-128.09891 53.383368-146.916746 119.894228a1529.246906 1529.246906 0 0 1-58.067977 156.630031c-7.940015 20.247038-29.642723 41.976213-53.383368 41.84388-35.280134-3.043672-51.451298 10.454353-68.12533 52.668767l48.645826 16.144697-0.926335 22.920177a3292.194923 3292.194923 0 0 0-2.990739 100.04419 6160.498908 6160.498908 0 0 0-0.449934 98.906121c0 21.967375 0.026467 31.627727 0.1588 43.69655 0.291134 33.37453 1.191002 60.185314 3.30834 88.610568 0.105867 11.962956 16.462298 23.714178 22.232042 34.168532 50.842563 7.569481 102.532062 7.595948 153.374625 0.0794 2.064404-6.85488 4.181741-16.197631 7.119547-30.992525l3.176006-16.303498c3.811207-19.241303 6.378479-31.018992 9.501551-42.00268l5.875611-14.18616h430.269418c2.064404 19.50597 5.690344 31.918861 10.692554 50.419096H362.150959c-1.032202 4.816942-2.143804 10.269086-3.38774 16.700498l-3.202472 16.356431c-10.824887 54.442037-14.053827 64.949323-36.153536 72.889339l-4.816942 1.270402a580.150436 580.150436 0 0 1-198.07691 0l-11.195421-1.93207-6.828413-8.945751c-16.912232-22.232042-34.989-49.201627-35.200734-75.139009a1324.182783 1324.182783 0 0 1-3.38774-90.516172c-0.132334-12.25409-0.1588-22.073242-0.1588-44.172951 0-55.606572 0.0794-74.609675 0.449934-99.726589 0.344067-24.534647 1.005735-48.778159 2.117338-78.632616L15.648701 512.025106l-3.758274-17.071032a92.289442 92.289442 0 0 1 0-39.911809l1.138069-3.970008c24.58758-64.605256 59.047246-97.238718 119.682494-94.274446a23.026044 23.026044 0 0 0 4.181741-6.113811 1478.616077 1478.616077 0 0 0 56.10944-151.098487c25.328648-89.113436 104.172998-153.162891 194.662703-160.282438a1487.747094 1487.747094 0 0 1 48.884027-7.701815l9.633884-1.429203c18.500235-2.646672 27.419519-3.996474 37.794472-5.663877l17.150433-2.752539 2.037937 2.620205a872.210658 872.210658 0 0 1 238.888587 2.567272c13.233358 2.620205 20.88224 4.075874 48.804627 9.289818 59.57658 11.116021 88.504702 17.203366 121.32343 26.175583a148.213615 148.213615 0 0 1 104.940533 96.81525c23.026044 64.155322 47.216623 127.86071 72.598205 191.14263-20.273505 0.397001-40.123543 2.382005-59.470713 5.849145a5607.794458 5607.794458 0 0 1-67.595996-178.623873zM46.958827 462.638213l-0.291134 0.979268h0.026467l20.247038 7.569481 0.794002-2.170271 0.370534-1.799736-21.146907-4.578742z" p-id="5872"></path></svg>